<?xml version="1.0" standalone="no"?>
<!DOCTYPE svg PUBLIC "-//W3C//DTD SVG 20010904//EN"
 "http://www.w3.org/TR/2001/REC-SVG-20010904/DTD/svg10.dtd">
<svg version="1.0" xmlns="http://www.w3.org/2000/svg"
 width="403.000000pt" height="187.000000pt" viewBox="0 0 403.000000 187.000000"
 preserveAspectRatio="xMidYMid meet">

<g transform="translate(0.000000,187.000000) scale(0.100000,-0.100000)"
fill="#000000" stroke="none">
<path d="M0 935 l0 -935 944 0 c741 0 946 3 952 12 11 18 7 119 -6 169 -9 33
-9 48 1 65 11 21 9 27 -14 48 -15 14 -27 30 -27 36 0 6 -4 8 -10 5 -6 -4 -10
5 -10 19 0 14 -3 26 -8 26 -4 0 -14 14 -21 32 -8 18 -16 27 -19 20 -2 -7 -10
-12 -18 -12 -8 0 -14 -8 -14 -18 0 -20 -18 -42 -34 -42 -6 0 -3 5 7 11 9 5 17
19 17 29 0 10 7 23 16 28 14 8 15 14 5 42 -6 18 -11 48 -11 66 0 18 -4 36 -10
39 -5 3 -10 17 -10 30 0 13 -5 27 -10 30 -6 3 -10 13 -10 22 0 14 3 14 20 -2
11 -10 20 -30 20 -45 0 -14 4 -30 10 -36 5 -5 13 -32 16 -59 4 -28 16 -63 28
-80 30 -42 44 -66 57 -97 6 -16 15 -28 21 -28 15 0 35 -23 42 -50 5 -17 4 -21
-2 -11 -29 41 -25 -92 4 -153 13 -27 14 -40 6 -65 l-11 -31 1055 0 1054 0 0
935 0 935 -933 0 c-733 0 -936 -3 -946 -12 -11 -10 -13 -10 -7 0 6 9 -27 12
-148 12 -143 0 -156 -1 -166 -19 -5 -11 -10 -27 -10 -36 0 -9 -7 -24 -16 -33
-21 -21 -15 -155 8 -192 23 -35 20 -108 -3 -123 -11 -7 -19 -19 -19 -27 -1 -8
-15 -24 -33 -35 -18 -11 -32 -25 -32 -30 0 -6 -8 -21 -17 -35 -27 -43 -31
-114 -7 -154 14 -23 18 -43 14 -57 -6 -17 -1 -27 16 -40 19 -15 22 -22 13 -36
-6 -10 -9 -34 -8 -54 2 -20 -3 -56 -11 -80 l-13 -44 0 87 c0 49 4 91 10 94 5
3 2 14 -8 25 -9 10 -17 32 -16 49 1 24 -3 30 -21 30 -18 0 -19 2 -7 10 12 7
12 14 4 27 -17 28 -5 138 17 162 11 11 19 27 19 36 0 8 11 21 25 27 40 18 65
67 58 111 -3 20 -10 37 -14 37 -5 0 -9 10 -9 23 0 12 -5 29 -10 37 -8 12 -13
13 -30 2 -26 -16 -26 -5 0 16 14 12 22 34 26 72 3 30 12 69 20 87 31 69 110
63 -881 63 l-895 0 0 -935z m2143 890 c-3 -9 -8 -14 -10 -11 -3 3 -2 9 2 15 9
16 15 13 8 -4z m17 -95 c0 -8 -7 -2 -15 14 -19 36 -19 45 0 20 8 -10 14 -26
15 -34z m17 -82 c-3 -7 -5 -2 -5 12 0 14 2 19 5 13 2 -7 2 -19 0 -25z m-584
-25 c3 -5 -5 -8 -18 -8 -13 0 -21 3 -18 8 2 4 10 7 18 7 8 0 16 -3 18 -7z
m107 -28 c-7 -8 -20 -15 -28 -15 -13 0 -12 3 4 15 25 19 40 19 24 0z m-59 -12
c13 -16 12 -17 -3 -4 -10 7 -18 15 -18 17 0 8 8 3 21 -13z m520 -6 c-10 -9
-11 -8 -5 6 3 10 9 15 12 12 3 -3 0 -11 -7 -18z m-34 -94 c1 -22 -1 -24 -8
-10 -6 9 -7 22 -4 27 9 14 10 13 12 -17z m-214 -24 c7 -11 16 -19 22 -19 5 0
19 -13 30 -28 l19 -27 -34 29 c-19 16 -39 35 -43 42 -4 8 -17 14 -27 14 -10 0
-21 4 -24 9 -3 4 6 6 20 3 14 -2 31 -13 37 -23z m92 -97 c-3 -3 -11 0 -18 7
-9 10 -8 11 6 5 10 -3 15 -9 12 -12z m31 -58 c9 3 12 1 9 -4 -3 -6 -15 -10
-27 -10 -14 0 -18 5 -14 16 3 9 7 21 7 27 1 7 4 2 6 -11 3 -16 10 -22 19 -18z
m49 -14 c3 -6 -1 -7 -9 -4 -10 4 -16 1 -16 -7 0 -7 -3 -10 -6 -6 -7 7 4 27 16
27 5 0 12 -4 15 -10z m-908 -6 c-3 -3 -12 -4 -19 -1 -8 3 -5 6 6 6 11 1 17 -2
13 -5z m450 -10 c-3 -3 -12 -4 -19 -1 -8 3 -5 6 6 6 11 1 17 -2 13 -5z m-237
-74 c0 -5 -5 -10 -11 -10 -5 0 -7 5 -4 10 3 6 8 10 11 10 2 0 4 -4 4 -10z
m273 -135 c4 -8 3 -16 -1 -19 -4 -3 -9 4 -9 15 -2 23 3 25 10 4z m35 -164 l-1
-36 -4 35 c-3 19 -9 39 -14 45 -5 5 -9 14 -9 20 0 5 7 1 15 -9 8 -11 14 -36
13 -55z m-8 -75 c0 -2 -8 -10 -17 -17 -16 -13 -17 -12 -4 4 13 16 21 21 21 13z"/>
</g>
</svg>
