<?xml version="1.0" standalone="no"?>
<!DOCTYPE svg PUBLIC "-//W3C//DTD SVG 20010904//EN"
 "http://www.w3.org/TR/2001/REC-SVG-20010904/DTD/svg10.dtd">
<svg version="1.0" xmlns="http://www.w3.org/2000/svg"
 width="474.000000pt" height="474.000000pt" viewBox="0 0 474.000000 474.000000"
 preserveAspectRatio="xMidYMid meet">

<g transform="translate(0.000000,474.000000) scale(0.100000,-0.100000)"
fill="#000000" stroke="none">
<path d="M2152 4567 c-341 -216 -412 -263 -412 -270 0 -15 82 -137 92 -137 5
0 57 31 116 68 59 37 167 106 241 153 73 46 140 94 148 106 33 50 -16 133 -79
133 -12 0 -60 -24 -106 -53z"/>
<path d="M1385 4518 c-29 -16 -55 -50 -55 -73 0 -11 7 -33 15 -49 8 -15 15
-30 15 -32 0 -2 -190 -161 -422 -354 -233 -193 -432 -365 -442 -382 -11 -16
-20 -49 -20 -72 -1 -44 18 -79 182 -336 33 -52 101 -161 151 -241 117 -188
124 -194 209 -194 60 1 79 7 172 52 58 28 186 88 285 133 213 98 332 153 477
222 l107 51 41 -37 c46 -41 62 -44 107 -17 35 22 49 64 34 102 -5 13 -86 146
-180 294 -94 149 -201 319 -238 379 -37 59 -75 119 -83 132 -81 128 -121 191
-165 259 -28 44 -60 94 -70 111 -18 32 -62 64 -87 64 -7 0 -22 -6 -33 -12z
m248 -703 c106 -74 52 -245 -78 -245 -147 0 -185 194 -50 256 34 16 97 11 128
-11z m-456 -27 c21 -24 259 -402 288 -457 21 -42 13 -63 -37 -101 -48 -34 -96
-39 -121 -12 -15 17 -268 415 -292 460 -21 38 -7 71 43 103 55 35 91 37 119 7z
m-229 -155 c11 -16 81 -126 156 -246 149 -238 157 -260 107 -297 -53 -37 -95
-50 -119 -37 -34 18 -324 486 -320 517 4 34 80 90 123 90 25 0 38 -7 53 -27z"/>
<path d="M2500 4017 c-253 -158 -396 -250 -407 -260 -9 -9 -2 -28 30 -79 23
-37 47 -68 52 -68 6 0 46 23 90 51 44 28 156 99 248 156 182 114 197 129 177
189 -13 40 -44 64 -80 64 -14 0 -63 -24 -110 -53z"/>
<path d="M484 3098 c-27 -18 -97 -80 -155 -138 -198 -195 -303 -401 -316 -620
-13 -218 38 -398 178 -626 22 -37 56 -97 75 -134 l34 -68 -20 -94 c-28 -123
-45 -315 -31 -351 l11 -27 112 0 c136 0 177 -10 228 -56 56 -51 63 -82 58
-261 -5 -180 -20 -162 142 -166 l104 -2 8 -37 c13 -66 63 -162 113 -218 129
-147 330 -212 508 -165 180 47 314 174 368 350 l24 75 451 0 452 0 22 -73 c42
-138 124 -239 246 -304 292 -155 638 -9 735 310 l21 67 147 0 c102 0 152 4
163 12 14 11 17 39 20 173 3 147 5 163 26 198 41 65 89 84 230 92 146 9 148
10 138 115 -24 238 -225 473 -505 591 -80 33 -225 68 -285 69 -47 0 -59 12
-249 240 -67 80 -167 197 -222 260 -55 63 -152 175 -215 248 -62 74 -124 138
-136 142 -41 16 -473 23 -700 11 -794 -41 -1327 -222 -1607 -546 -75 -86 -174
-231 -230 -335 -20 -35 -40 -66 -46 -68 -15 -5 -105 90 -135 141 -37 63 -73
181 -86 279 -40 299 119 596 440 821 l21 14 -22 39 c-26 44 -49 74 -59 74 -4
0 -29 -15 -56 -32z m2384 -630 c200 -225 382 -440 382 -452 0 -25 -70 -250
-86 -273 l-14 -23 -500 0 c-351 0 -501 3 -506 11 -11 19 -4 723 8 730 17 11
385 35 570 37 l118 2 28 -32z m-953 -384 l0 -359 -400 -2 c-220 -2 -488 0
-595 5 l-195 7 -3 99 -3 100 59 56 c160 152 476 312 762 385 86 22 352 74 365
71 6 -2 10 -131 10 -362z m2502 -722 c55 -81 94 -164 82 -176 -3 -3 -90 -6
-194 -6 l-190 -2 2 57 c4 99 67 188 164 229 46 20 60 10 136 -102z m-2894
-428 c64 -22 140 -92 174 -162 23 -46 28 -70 28 -132 0 -181 -132 -314 -315
-314 -91 -1 -152 25 -221 94 -77 77 -110 210 -79 320 24 88 97 163 187 196 52
18 169 17 226 -2z m1962 -11 c50 -26 111 -87 135 -133 78 -157 13 -355 -144
-434 -74 -37 -185 -41 -258 -8 -66 29 -141 103 -169 165 -31 70 -32 182 -2
248 38 84 113 151 203 180 47 16 191 4 235 -18z"/>
<path d="M202 931 c-24 -4 -53 -17 -65 -30 -20 -20 -22 -31 -22 -152 0 -130 0
-131 27 -154 15 -13 48 -27 73 -30 66 -10 266 -1 296 14 40 20 49 51 49 172 0
116 -12 159 -47 174 -26 11 -260 15 -311 6z"/>
<path d="M4333 925 c-17 -7 -36 -22 -42 -34 -14 -26 -14 -229 0 -269 16 -47
53 -57 214 -57 77 0 152 3 167 7 49 14 68 63 68 173 0 93 -1 99 -31 136 -19
24 -44 42 -67 49 -55 15 -270 12 -309 -5z"/>
</g>
</svg>
