<?xml version="1.0" standalone="no"?>
<!DOCTYPE svg PUBLIC "-//W3C//DTD SVG 20010904//EN"
 "http://www.w3.org/TR/2001/REC-SVG-20010904/DTD/svg10.dtd">
<svg version="1.0" xmlns="http://www.w3.org/2000/svg"
 width="626.000000pt" height="417.000000pt" viewBox="0 0 626.000000 417.000000"
 preserveAspectRatio="xMidYMid meet">

<g transform="translate(0.000000,417.000000) scale(0.100000,-0.100000)"
fill="#000000" stroke="none">
<path d="M2400 3779 c-56 -25 -96 -62 -123 -114 -31 -60 -34 -192 -30 -1700 4
-1121 7 -1348 18 -1391 18 -62 71 -124 138 -158 l49 -25 637 -1 637 0 50 24
c61 29 126 100 142 153 17 56 20 3001 3 3061 -7 24 -28 60 -47 80 -20 20 -33
30 -29 22 4 -8 -5 -2 -19 13 -54 58 -38 57 -738 57 -625 0 -644 -1 -688 -21z
m266 -57 c6 -4 15 -22 19 -39 3 -18 18 -42 32 -53 25 -19 40 -20 372 -20 389
0 390 1 406 65 5 22 14 43 20 47 5 4 53 8 106 8 120 0 170 -22 206 -90 l23
-43 0 -1495 c0 -1472 0 -1496 -20 -1536 -11 -23 -36 -52 -57 -66 l-37 -25
-630 -3 -631 -3 -44 23 c-53 27 -79 60 -91 114 -14 59 -13 2949 1 2999 13 48
62 102 104 114 37 11 206 13 221 3z"/>
<path d="M2489 2225 c-14 -8 -32 -28 -39 -45 -10 -25 -10 -34 4 -55 20 -31 12
-48 -20 -42 -26 5 -50 -15 -39 -33 3 -5 23 -10 44 -10 28 0 46 7 66 28 24 24
26 24 16 4 -18 -35 15 -43 44 -10 11 13 26 23 33 20 7 -2 19 2 28 9 13 10 13
8 4 -15 -14 -37 -13 -38 13 -35 12 2 28 0 35 -5 9 -5 22 0 36 13 28 27 42 27
49 0 4 -14 10 -18 19 -13 7 5 22 7 32 5 11 -1 28 9 42 26 22 26 23 26 24 7 0
-14 8 -24 22 -28 31 -7 40 4 25 34 -12 23 -9 28 27 62 35 34 56 46 56 34 0 -2
-13 -33 -30 -67 -18 -40 -26 -67 -20 -73 14 -14 35 8 71 72 17 31 44 69 60 84
16 15 29 32 29 37 0 16 -45 13 -87 -4 -33 -14 -38 -14 -45 0 -23 39 -89 4
-140 -74 -16 -25 -27 -39 -24 -31 24 71 28 91 23 104 -4 9 -11 16 -16 16 -16
0 -81 -61 -113 -104 -33 -46 -35 -43 -8 19 37 87 21 109 -38 53 l-35 -33 7 28
c5 22 3 27 -13 27 -22 0 -63 -48 -83 -97 l-13 -30 -17 33 -18 34 38 18 c20 9
37 24 37 32 0 20 -53 24 -86 5z m451 -45 c-11 -20 -30 -28 -30 -12 0 11 22 32
32 32 5 0 4 -9 -2 -20z m-159 -54 c-6 -14 -15 -26 -21 -26 -7 0 -4 13 6 30 21
35 29 33 15 -4z"/>
<path d="M3147 2210 c-19 -16 -51 -61 -71 -100 -31 -59 -35 -71 -22 -76 25
-10 46 3 57 35 8 22 15 28 30 24 10 -3 30 2 45 11 l25 17 -15 -30 c-36 -69 -3
-85 41 -19 38 56 61 63 34 10 -12 -23 -17 -43 -12 -46 18 -12 44 8 61 48 17
36 18 38 13 10 -5 -34 16 -64 46 -64 56 0 135 103 129 170 -3 34 -4 35 -43 32
-29 -2 -50 -12 -74 -35 l-33 -32 16 32 c20 41 20 43 -4 43 -13 0 -27 -14 -40
-40 -11 -22 -27 -40 -36 -40 -13 0 -12 5 5 34 26 41 26 46 2 46 -11 0 -28 -12
-39 -27 l-19 -26 -7 26 c-9 37 -46 36 -89 -3z m19 -66 c-10 -14 -20 -23 -23
-21 -2 3 3 17 13 31 9 15 19 24 22 22 2 -3 -3 -17 -12 -32z m275 -7 c-7 -19
-23 -45 -36 -57 -24 -22 -25 -23 -25 -4 0 20 60 107 68 99 2 -2 -1 -19 -7 -38z"/>
<path d="M3731 2231 c-30 -8 -82 -92 -105 -168 -6 -18 -2 -24 18 -29 33 -8 80
8 84 29 3 12 -4 17 -23 17 -23 0 -24 2 -15 20 6 11 17 20 24 20 8 0 19 7 26
15 10 12 9 15 -5 15 -27 0 -12 24 28 43 64 30 41 59 -32 38z"/>
<path d="M3635 2213 c-8 -10 -21 -27 -29 -38 -15 -19 -15 -19 -16 13 0 36 -18
42 -43 14 -21 -23 -80 -152 -73 -159 11 -11 37 7 56 39 l20 33 0 -32 c0 -66
32 -48 90 51 22 37 40 74 40 82 0 20 -27 17 -45 -3z"/>
<path d="M2720 1922 l-30 -30 0 24 c0 30 -20 31 -47 2 -22 -24 -83 -140 -83
-158 0 -19 39 -10 54 12 8 12 27 22 40 23 22 0 24 -3 20 -22 -8 -32 19 -30 43
3 18 25 19 25 20 3 4 -46 56 -52 103 -13 54 46 91 147 64 174 -18 18 -88 -7
-118 -42 -26 -30 -27 -31 -21 -8 19 63 0 76 -45 32z m111 -101 c-21 -40 -38
-57 -48 -48 -9 9 7 46 35 78 33 40 40 23 13 -30z"/>
<path d="M3091 1931 c-16 -16 -20 -17 -25 -5 -3 8 -19 14 -40 14 -83 0 -178
-157 -116 -190 31 -16 90 5 90 32 0 16 -5 19 -24 14 -33 -8 -40 7 -21 43 18
36 55 60 55 36 0 -8 9 -15 20 -15 20 0 20 -1 4 -37 -35 -82 -35 -83 -15 -83 9
0 24 11 31 25 l13 24 29 -24 c44 -37 62 -18 34 36 -13 25 -12 27 20 44 18 10
35 24 38 32 11 29 -6 33 -42 11 l-37 -22 28 36 c15 20 27 39 27 42 0 14 -52 4
-69 -13z"/>
<path d="M3450 1940 c-8 -4 -33 -34 -55 -64 -22 -31 -43 -56 -47 -56 -9 0 8
45 27 73 19 28 19 47 0 47 -9 0 -28 -19 -43 -42 -26 -41 -29 -43 -71 -40 -43
3 -91 -13 -91 -30 0 -11 87 -10 109 1 16 9 18 5 17 -32 l-1 -42 53 -2 53 -1
44 92 c25 51 45 96 45 100 0 9 -22 7 -40 -4z"/>
<path d="M3527 1920 c-36 -31 -111 -162 -100 -174 15 -15 45 -4 61 24 12 21
25 30 44 30 49 0 107 100 78 135 -19 23 -46 18 -83 -15z m13 -74 l-23 -21 19
33 c10 18 20 28 23 21 2 -6 -7 -21 -19 -33z"/>
</g>
</svg>
